<!-- Generated by IcoMoon.io -->
<svg version="1.1" xmlns="http://www.w3.org/2000/svg" width="1024" height="1024" viewBox="0 0 1024 1024">
<g id="icomoon-ignore">
</g>
<path d="M901.559 491.154c-4.309-80.406-32.459-153.49-77.44-213.175l0.713 0.988c-13.977 15.035-28.61 28.903-44.077 41.807l-0.759 0.616c-46.456 38.811-99.75 71.716-157.395 96.419l-4.178 1.592c8.192 17.042 15.653 33.646 22.235 49.225v0.146c1.829 4.389 3.657 8.777 5.339 13.166 73.874-8.338 151.625-5.266 227.109 4.901 10.021 1.39 19.456 2.853 28.453 4.315zM443.904 127.854c47.543 66.926 91.429 136.485 131.291 208.238 56.938-22.144 106.086-51.209 149.572-86.916l-0.946 0.753c13.751-11.41 26.77-23.698 38.766-36.864-67.076-56.682-154.528-91.136-250.027-91.136-0.197 0-0.394 0-0.591 0h0.031c-22.821 0-45.568 1.902-68.023 5.851v0.073zM134.217 414.354c33.207-0.878 66.414-2.926 99.474-5.998 88.696-8.070 169.455-22.232 247.797-42.414l-10.667 2.332c-47.247-81.854-90.765-149.136-137.151-214.233l5.494 8.116c-100.743 50.671-175.373 140.753-204.328 249.466l-0.619 2.73zM208.823 757.541c24.057-34.495 49.292-64.744 76.871-92.671l-0.071 0.072c70.949-72.704 154.624-129.243 251.465-160.475l2.999-0.878c-8.046-17.701-15.579-33.573-23.186-48.494-89.527 26.112-183.881 42.423-277.797 50.834-45.861 4.096-86.967 5.925-117.175 6.217 0 0.122 0 0.267 0 0.412 0 93.198 32.814 178.732 87.519 245.678l-0.552-0.696zM658.505 873.545c-21.53-107.403-49.006-200.662-83.647-290.357l4.067 11.975c-97.573 35.474-175.397 87.333-235.52 149.138-23.662 23.878-44.842 50.289-63.077 78.769l-1.143 1.908c63.945 48.137 144.705 77.093 232.227 77.093 0.206 0 0.412 0 0.618 0h-0.032c0.19 0 0.414 0.001 0.639 0.001 52.57 0 102.705-10.427 148.449-29.325l-2.584 0.945v-0.146zM749.861 821.175c74.389-57.597 126.989-140.21 145.236-235.048l0.392-2.447c-16.070-4.178-36.647-8.196-57.573-11.124l-3.135-0.359c-25.109-3.81-54.081-5.986-83.561-5.986-25.202 0-50.033 1.59-74.398 4.676l2.896-0.299c29.038 81.847 52.443 165.595 70.144 250.587zM512 999.643c-1.776 0.023-3.872 0.037-5.972 0.037-269.318 0-487.643-218.325-487.643-487.643s218.325-487.643 487.643-487.643c2.1 0 4.196 0.013 6.29 0.040l-0.318-0.003c266.737 3.371 481.671 220.389 481.671 487.607s-214.934 484.236-481.353 487.604l-0.318 0.003z"></path>
</svg>
