<!-- Generated by IcoMoon.io -->
<svg version="1.1" xmlns="http://www.w3.org/2000/svg" width="1638" height="1024" viewBox="0 0 1638 1024">
<g id="icomoon-ignore">
</g>
<path d="M508.109 58.061c43.622 0 83.968 3.379 120.832 13.517 33.485 6.144 65.331 18.739 94.003 37.069 26.931 16.896 47.104 40.55 60.416 70.963 13.414 30.413 20.173 67.584 20.173 108.032 0 47.309-10.035 87.859-33.587 118.17-20.070 30.515-53.658 57.446-94.003 77.722 57.139 16.896 100.762 47.309 127.59 87.757 26.829 40.55 43.622 91.238 43.622 148.685 0 47.309-10.035 87.757-26.829 121.549s-43.622 64.205-73.933 84.48c-32.768 21.709-69.12 37.683-107.315 47.206-40.346 10.24-80.589 16.896-120.832 16.896h-449.946v-932.045h439.808zM481.178 436.224c36.966 0 67.174-10.138 90.726-26.931 23.45-16.896 33.587-47.309 33.587-84.48 0-20.275-3.482-40.55-10.138-53.965-7.411-13.723-17.602-25.060-29.893-33.585l-0.315-0.207c-12.565-7.171-27.111-12.98-42.483-16.665l-1.139-0.231c-16.794-3.379-33.587-3.379-53.76-3.379h-194.662v219.443h208.179zM491.315 834.765c20.173 0 40.243-3.379 57.037-6.758 34.595-6.971 63.266-28.023 80.283-56.786l0.305-0.558c6.656-16.896 13.414-37.171 13.414-60.826 0-47.309-13.414-81.101-40.243-104.755-26.931-20.275-63.795-30.31-107.52-30.31h-221.389v260.096l218.214-0.102zM1139.302 831.386c26.829 27.034 67.072 40.55 120.832 40.55 36.864 0 70.554-10.138 97.28-27.034 26.931-20.275 43.725-40.55 50.483-60.826h164.454c-26.829 81.101-67.174 138.445-120.832 175.616-53.76 33.792-117.555 54.067-194.765 54.067-0.355 0.001-0.775 0.002-1.196 0.002-51.532 0-100.747-9.926-145.835-27.97l2.646 0.935c-42.696-16.296-78.745-41.679-107.162-73.945l-0.255-0.295c-30.321-30.259-53.437-67.726-66.559-109.613l-0.513-1.9c-16.794-43.93-23.552-91.136-23.552-145.203 0-50.688 6.758-97.894 23.552-141.824 17.173-44.367 41.016-82.49 70.72-115.193l-0.269 0.3c30.208-30.31 67.174-57.344 107.418-74.24 41.37-17.104 89.407-27.036 139.765-27.036 0.436 0 0.872 0.001 1.308 0.002h-0.067c57.139 0 107.52 10.24 151.142 33.792s77.21 50.688 104.038 91.136c27.443 39.014 47.923 82.432 60.416 128.41 6.758 47.206 10.035 94.515 6.758 148.48h-486.81c0 54.17 20.070 104.755 47.002 131.789zM1350.758 476.774c-23.45-23.552-60.416-37.171-104.038-37.171-0.712-0.011-1.553-0.018-2.395-0.018-26.080 0-50.7 6.25-72.444 17.333l0.906-0.419c-20.070 10.24-33.485 23.654-46.899 37.171-12.003 12.631-20.4 28.795-23.476 46.775l-0.076 0.534c-3.379 16.896-6.758 30.31-6.758 43.827h302.182c-6.656-50.586-23.552-84.378-47.002-108.032zM1055.334 122.163h376.013v91.238h-375.91v-91.136h-0.102z"></path>
</svg>
