<!-- Generated by IcoMoon.io -->
<svg version="1.1" xmlns="http://www.w3.org/2000/svg" width="1365" height="1024" viewBox="0 0 1365 1024">
<g id="icomoon-ignore">
</g>
<path fill="#000" d="M256 398.165c-1.737 0.054-3.78 0.085-5.83 0.085-109.997 0-199.168-89.171-199.168-199.168s89.171-199.168 199.168-199.168c2.050 0 4.092 0.031 6.127 0.092l-0.298-0.007c107.461 3.246 193.338 91.135 193.338 199.083s-85.878 195.837-193.041 199.076l-0.298 0.007zM256 284.501c47.128 0 85.333-38.205 85.333-85.333s-38.205-85.333-85.333-85.333v0c-47.128 0-85.333 38.205-85.333 85.333s38.205 85.333 85.333 85.333v0zM1251.499 398.165h-113.664c0-125.691-101.893-227.584-227.584-227.584s-227.584 101.893-227.584 227.584v0 284.501c0 125.691 101.893 227.584 227.584 227.584s227.584-101.893 227.584-227.584v0h113.664c0 188.513-152.82 341.333-341.333 341.333s-341.333-152.82-341.333-341.333v0-284.501c0-188.513 152.82-341.333 341.333-341.333s341.333 152.82 341.333 341.333v0z"></path>
</svg>
