<!-- Generated by IcoMoon.io -->
<svg version="1.1" xmlns="http://www.w3.org/2000/svg" width="1024" height="1024" viewBox="0 0 1024 1024">
<g id="icomoon-ignore">
</g>
<path fill="#000" d="M512 999.643c-269.318 0-487.643-218.325-487.643-487.643s218.325-487.643 487.643-487.643v0c269.318 0 487.643 218.325 487.643 487.643s-218.325 487.643-487.643 487.643v0zM512 902.071c1.589 0.023 3.464 0.037 5.342 0.037 215.471 0 390.144-174.673 390.144-390.144s-174.673-390.144-390.144-390.144c-1.878 0-3.753 0.013-5.625 0.040l0.283-0.003c-213.161 3.012-384.802 176.515-384.802 390.107s171.642 387.096 384.519 390.104l0.283 0.003zM560.786 512h194.999v97.499h-292.571v-341.285h97.573v243.785z"></path>
</svg>
