<!-- Generated by IcoMoon.io -->
<svg version="1.1" xmlns="http://www.w3.org/2000/svg" width="1024" height="1024" viewBox="0 0 1024 1024">
<g id="icomoon-ignore">
</g>
<path d="M512 24.357c132.462 0 148.992 0.512 200.997 2.926 51.931 2.487 87.259 10.606 118.418 22.674 32.183 12.434 59.246 29.184 86.382 56.247 24.795 24.357 43.959 53.833 56.247 86.382 11.995 31.086 20.187 66.487 22.674 118.418 2.267 51.931 2.926 68.535 2.926 200.997s-0.512 148.992-2.926 200.997c-2.487 51.931-10.679 87.259-22.674 118.418-12.215 32.549-31.451 62.025-56.247 86.309-23.768 24.195-52.581 43.348-84.744 55.764l-1.638 0.556c-31.086 11.995-66.487 20.187-118.418 22.674-51.931 2.194-68.535 2.926-200.997 2.926s-148.992-0.512-200.997-2.926c-51.931-2.487-87.259-10.679-118.418-22.674-33.815-12.933-62.635-32.092-86.343-56.28l-0.039-0.040c-24.175-23.742-43.305-52.533-55.693-84.673l-0.554-1.635c-12.069-31.086-20.187-66.56-22.674-118.491-2.267-51.858-2.926-68.389-2.926-200.923s0.512-148.992 2.926-200.997c2.487-51.931 10.606-87.259 22.674-118.418 12.215-32.549 31.451-62.025 56.247-86.382 24.357-24.869 53.833-44.032 86.382-56.247 31.159-12.069 66.414-20.187 118.418-22.674 51.931-2.267 68.535-2.926 200.997-2.926zM512 268.215c-134.639 0-243.785 109.146-243.785 243.785s109.146 243.785 243.785 243.785v0c134.639 0 243.785-109.146 243.785-243.785s-109.146-243.785-243.785-243.785v0zM828.928 256c0-33.65-27.278-60.928-60.928-60.928s-60.928 27.278-60.928 60.928v0c0 33.65 27.278 60.928 60.928 60.928s60.928-27.278 60.928-60.928v0zM512 365.714c80.791 0 146.286 65.494 146.286 146.286s-65.494 146.286-146.286 146.286v0c-80.791 0-146.286-65.494-146.286-146.286s65.494-146.286 146.286-146.286v0z"></path>
</svg>
