<!-- Generated by IcoMoon.io -->
<svg version="1.1" xmlns="http://www.w3.org/2000/svg" width="1024" height="1024" viewBox="0 0 1024 1024">
<g id="icomoon-ignore">
</g>
<path d="M746.124 680.401l199.401 199.215-65.815 65.908-199.308-199.401c-70.957 56.972-162.107 91.437-261.306 91.437-231.304 0-418.842-187.382-419.095-418.627v-0.025c0-231.238 187.671-418.909 418.909-418.909 231.269 0.252 418.652 187.791 418.652 419.095 0 99.199-34.465 190.348-92.074 262.127l0.637-0.821zM652.753 645.772c56.961-58.59 92.084-138.671 92.084-226.956 0-179.893-145.832-325.725-325.725-325.725-0.072 0-0.143 0-0.215 0h0.011c-179.893 0-325.725 145.832-325.725 325.725 0 0.066 0 0.131 0 0.197v-0.010c0 0.115 0 0.251 0 0.387 0 179.893 145.832 325.725 325.725 325.725 88.33 0 168.448-35.159 227.123-92.247l-0.074 0.072 6.982-6.982z"></path>
</svg>
