<!-- Generated by IcoMoon.io -->
<svg version="1.1" xmlns="http://www.w3.org/2000/svg" width="1195" height="1024" viewBox="0 0 1195 1024">
<g id="icomoon-ignore">
</g>
<path d="M1175.467 151.040c-39.802 18.136-85.974 31.353-134.391 37.315l-2.313 0.232c49.251-29.817 86.274-75.609 104.223-130.068l0.481-1.687c-43.475 26.259-94.080 46.275-147.991 57.171l-3.049 0.514c-43.538-46.521-105.313-75.51-173.86-75.51-131.394 0-237.909 106.516-237.909 237.909 0 19.371 2.315 38.201 6.684 56.229l-0.333-1.626c-198.194-10.194-372.539-104.34-489.455-247.286l-0.956-1.205c-20.317 34.308-32.322 75.616-32.322 119.728 0 82.219 41.707 154.696 105.118 197.43l0.847 0.538c-39.765-1.323-76.709-12.235-108.956-30.481l1.18 0.614v2.987c0.027 114.763 81.251 210.547 189.346 233.033l1.545 0.269c-35.072 9.557-71.851 10.923-107.52 4.096 31.263 95.298 118.537 163.275 221.973 165.287l0.235 0.004c-80.375 63.582-183.201 101.994-294.999 101.994-20.15 0-40.008-1.248-59.502-3.67l2.33 0.236c102.863 67.047 228.759 106.923 363.968 106.923 0.233 0 0.466 0 0.699 0h-0.037c437.675 0 677.035-362.581 677.035-676.949 0-10.24-0.341-20.651-0.768-30.72 46.75-34.068 86.138-74.895 117.609-121.508l1.090-1.713z"></path>
</svg>
