<!-- Generated by IcoMoon.io -->
<svg version="1.1" xmlns="http://www.w3.org/2000/svg" width="1170" height="1024" viewBox="0 0 1170 1024">
<g id="icomoon-ignore">
</g>
<path fill="#000" d="M296.594 633.929c-2.56-14.536-4.023-31.272-4.023-48.35 0-161.583 130.989-292.571 292.571-292.571s292.571 130.989 292.571 292.571c0 17.078-1.463 33.814-4.271 50.090l0.248-1.74h-577.097zM97.499 731.429h487.643v97.499h-487.643v-97.499zM682.642 731.429h390.144v97.499h-390.144v-97.499zM780.215 926.501h194.999v97.499h-194.999v-97.499zM195.072 926.501h487.57v97.499h-487.57v-97.499zM536.357 48.786h97.573v146.286h-97.573v-146.286zM171.374 240.421l68.974-69.047 103.424 103.424-68.974 68.974-103.424-103.351zM929.865 171.374l68.974 68.974-103.424 103.424-68.974-68.974 103.424-103.424zM1121.499 536.357v97.573h-146.286v-97.573h146.286zM195.072 536.357v97.573h-146.286v-97.573h146.286z"></path>
</svg>
