<!-- Generated by IcoMoon.io -->
<svg version="1.1" xmlns="http://www.w3.org/2000/svg" width="1195" height="1024" viewBox="0 0 1195 1024">
<g id="icomoon-ignore">
</g>
<path d="M1140.224 198.997c26.027 101.376 26.027 313.003 26.027 313.003s0 211.627-26.027 313.003c-14.059 55.448-55.707 98.68-109.118 114.737l-1.132 0.292c-97.28 27.051-432.64 27.051-432.64 27.051s-335.275 0-432.64-27.051c-54.544-16.349-96.192-59.581-110.012-113.923l-0.238-1.106c-26.027-101.376-26.027-313.003-26.027-313.003s0-211.627 26.027-313.003c14.059-55.448 55.707-98.68 109.118-114.737l1.132-0.292c97.365-27.051 432.64-27.051 432.64-27.051s335.36 0 432.64 27.051c53.76 15.104 96 59.136 110.251 115.029zM483.584 711.083l341.333-199.083-341.333-199.083v398.165z"></path>
</svg>
